<svg xmlns="http://www.w3.org/2000/svg" width="235.001" height="235.001" viewBox="0 0 6203.49 6203.49" shape-rendering="geometricPrecision" text-rendering="geometricPrecision" image-rendering="optimizeQuality" fill-rule="evenodd" clip-rule="evenodd"><defs><style>.fil1{fill:#82ecd3;fill-rule:nonzero}</style></defs><g id="Layer_x0020_1"><path d="M3101.75 5639.5c700.72 0 1335.27-284.13 1794.5-743.35 459.23-459.23 743.24-1093.67 743.24-1794.4 0-700.72-284.02-1335.27-743.24-1794.5-459.24-459.23-1093.78-743.24-1794.5-743.24-700.73 0-1335.18 284.02-1794.4 743.24C848.12 1766.49 564 2401.03 564 3101.75c0 700.73 284.13 1335.18 743.35 1794.4 459.23 459.23 1093.67 743.35 1794.4 743.35zm2193.3-344.55c-561.22 561.22-1336.87 908.54-2193.3 908.54-856.43 0-1631.98-347.32-2193.21-908.54C347.32 4733.73 0 3958.18 0 3101.74c0-856.42 347.32-1632.07 908.54-2193.3C1469.76 347.22 2245.31-.01 3101.75-.01c856.42 0 1632.07 347.22 2193.3 908.45 561.22 561.22 908.45 1336.87 908.45 2193.3 0 856.43-347.22 1631.98-908.45 2193.21z" fill="#c6f6f2" fill-rule="nonzero"/><path class="fil1" d="M1774.47 3301.14c-110.09-110.09-110.09-288.71 0-398.79 110.09-110.1 288.71-110.1 398.8 0l928.48 928.47 928.47-928.47c110.1-110.1 288.72-110.1 398.8 0 110.1 110.09 110.1 288.71 0 398.79L3301.14 4429.02c-110.09 110.09-288.71 110.09-398.79 0L1774.47 3301.14z"/><path class="fil1" d="M2819.75 1973.87c0-155.71 126.29-282 282-282 155.7 0 281.99 126.29 281.99 282v2255.75c0 155.7-126.29 282-281.99 282-155.71 0-282-126.3-282-282V1973.87z"/></g></svg>
