<svg xmlns="http://www.w3.org/2000/svg" width="235.001" height="235.001"
viewBox="0 0 6203.53 6203.53" shape-rendering="geometricPrecision"
text-rendering="geometricPrecision" image-rendering="optimizeQuality"
fill-rule="evenodd"
clip-rule="evenodd"><defs><style>.fil1{fill:#82ecd3;fill-rule:nonzero}</style></defs><g
id="Layer_x0020_1"><path d="M3101.76 564c-700.73 0-1335.27 284.13-1794.51
743.36C848.02 1766.59 564 2401.04 564 3101.77s284.02 1335.27 743.25
1794.51c459.24 459.23 1093.79 743.25 1794.51 743.25 700.74 0 1335.18-284.02
1794.41-743.25 459.23-459.24 743.36-1093.79 743.36-1794.51
0-700.74-284.13-1335.18-743.36-1794.41S3802.49 564 3101.76 564zM908.45
908.55C1469.68 347.32 2245.33 0 3101.76 0c856.44 0 1631.99 347.33 2193.22 908.55
561.23 561.23 908.55 1336.78 908.55 2193.22 0 856.43-347.33 1632.08-908.55
2193.31-561.23 561.23-1336.78 908.45-2193.22 908.45-856.43
0-1632.08-347.23-2193.31-908.45C347.22 4733.85 0 3958.2 0 3101.77c0-856.44
347.23-1631.99 908.45-2193.22z" fill="#c6f6f2" fill-rule="nonzero"/><path
class="fil1" d="M4429.05 2902.37c110.09 110.09 110.09 288.71 0 398.8-110.09
110.1-288.71 110.1-398.81 0l-928.49-928.48-928.48 928.48c-110.1 110.1-288.72
110.1-398.81 0-110.1-110.09-110.1-288.71 0-398.8l1127.89-1127.89c110.09-110.09
288.71-110.09 398.8 0l1127.89 1127.89z"/><path class="fil1" d="M3383.77
4229.65c0 155.71-126.29 282-282 282-155.7
0-281.99-126.29-281.99-282V1973.88c0-155.7 126.29-282 281.99-282 155.71 0 282
126.3 282 282v2255.77z"/></g></svg>
