<svg xmlns="http://www.w3.org/2000/svg" viewBox="0 0 1110.35 650.23" shape-rendering="geometricPrecision" text-rendering="geometricPrecision" image-rendering="optimizeQuality" fill-rule="evenodd" clip-rule="evenodd">
  <path d="M487.99 622.36L27.92 162.29C9.36 143.62 0 119.3 0 95.07 0 70.8 9.36 46.52 27.87 27.96 46.43 9.3 70.86-.01 95.13-.01c24.33 0 48.65 9.31 67.22 27.87l392.86 392.86L948.06 27.86C966.62 9.3 991.05-.01 1015.28-.01c24.27 0 48.65 9.31 67.16 27.87 18.61 18.56 27.92 42.94 27.92 67.21 0 24.33-9.31 48.65-27.87 67.22L622.42 622.36c-9.04 9.04-19.57 15.86-30.78 20.52-11.63 4.87-24.11 7.35-36.43 7.35-12.33 0-24.8-2.48-36.44-7.3-11.21-4.71-21.73-11.53-30.78-20.57z" fill="#006e72" fill-rule="nonzero"/>
</svg>
