<svg xmlns="http://www.w3.org/2000/svg" width="52.115" height="63.132" viewBox="0 0 951.31 1152.41" shape-rendering="geometricPrecision" text-rendering="geometricPrecision" image-rendering="optimizeQuality" fill-rule="evenodd" clip-rule="evenodd"><defs><style>.fil0,.fil3{fill:#000;fill-rule:nonzero}.fil3{fill:#006e72}</style></defs><g id="Layer_x0020_1"><path class="fil0" d="M474.37 0c81.88 0 156.27 33.45 210.16 87.34 53.89 53.88 87.34 128.28 87.34 210.16v343.26c0 37.91-30.74 68.65-68.65 68.65H245.54c-37.92 0-68.65-30.74-68.65-68.65V297.5c0-81.88 33.45-156.27 87.34-210.16C318.11 33.45 392.51 0 474.39 0zm113.08 184.41c-29.07-29.07-69.1-47.11-113.08-47.11-43.98 0-84.01 18.04-113.08 47.11-29.07 29.07-47.11 69.1-47.11 113.08V572.1h320.37V297.49c0-43.98-18.04-84.01-47.11-113.08z"/><path d="M897.72 757.46c66.36-130.44 68.65-267.74-36.61-373.01-105.27-105.27-311.22-84.67-382.17 64.08-68.65-148.75-267.74-160.19-382.16-64.08-93.82 77.81-119 224.26-52.63 361.56C158.57 986.29 366.81 1103 446.91 1141.9c20.59 9.16 43.48 9.16 64.07 0 75.52-43.48 274.61-162.48 386.74-384.45z" fill="#fff" fill-rule="nonzero"/><path d="M478.94 1144.89c96.81-93.59 352.86-195.8 0-700.24C410.29 295.9 211.2 284.46 96.78 380.57c-93.82 77.8-119 224.26-52.63 361.56 69.38 145.7 268.36 367.08 434.79 402.76z" fill="#033" fill-rule="nonzero" stroke="#033" stroke-width="13.8" stroke-miterlimit="22.926"/><path class="fil0" d="M472.37 1144.89c-144.32-130.81-490.7-303.78 0-700.24 68.65-148.75 267.74-160.19 382.16-64.08 93.82 77.8 119 224.26 52.63 361.56-69.38 145.7-268.36 367.08-434.79 402.76z" stroke="#000" stroke-width="13.8" stroke-miterlimit="22.926"/><circle class="fil3" cx="474.37" cy="679.65" r="73.23"/><path class="fil3" d="M494.5 697.96l34.79 128.15 14.65 54.93H404.79l14.65-54.93 34.79-128.15 5.49-20.14h29.29z"/></g></svg>
