<svg xmlns="http://www.w3.org/2000/svg" width="73.093" height="66.032" viewBox="0 0 3255.41 2940.93" shape-rendering="geometricPrecision" text-rendering="geometricPrecision" image-rendering="optimizeQuality" fill-rule="evenodd" clip-rule="evenodd"><defs><style>.fil0{fill:#00d0be}</style></defs><g id="Layer_x0020_1"><g id="_2143200738048"><path class="fil0" d="M2408.73 3.91L2812.26.04c161.18-1.55 300.31 77.37 381.69 216.49 81.37 139.13 81.96 299.08 1.62 438.81L2007.41 2721.59c-80.11 139.33-218.02 219.19-378.73 219.32-160.71.15-298.76-79.47-379.12-218.65l-294.45-510.03c-20.03-34.68-20.08-74.35-.15-109.08L2033.64 223.53c79.39-138.34 215.6-218.09 375.1-219.62zM65.09 715.26l525.32 909.89c21.71 37.62 59.05 59.14 102.48 59.08 43.45-.07 80.72-21.68 102.33-59.35l522.62-910.68c86.27-150.34 85.93-322.11-.93-472.11-86.86-150-235.68-235.78-409.02-235.78H474.4c-173.53 0-322.54 86.02-409.32 236.31-86.78 150.3-86.78 322.36 0 472.65z"/></g></g></svg>
