<svg width="73" height="27" fill="none" xmlns="http://www.w3.org/2000/svg"><path d="M18.257 5.585l-4.513-3.668c-.262-.233-.262-.495 0-.699.262-.203.728-.32 1.223-.262l1.543.175c.32.03.582.117.757.262l3.29 2.679c.175.145.233.32.175.465l-.32.816c-.088.262-.467.436-.932.494-.466.059-.932-.058-1.223-.262zM6.405 16.326l3.057-7.715.087-.174c.03-.058.058-.117.117-.175a.633.633 0 01.116-.145A.51.51 0 019.928 8a.608.608 0 01.174-.116c.059-.03.117-.059.204-.088.059-.029.146-.029.204-.058.058 0 .146-.029.233-.029h1.106l.117.03.116.028.116.03c.059.028.088.028.146.058.059.029.088.058.146.087.029.029.087.058.116.116.03.03.058.088.117.117.029.058.058.087.087.145.03.059.058.088.058.146.03.116.058.204.058.32v.117l-.029.116-.029.117-.029.116-5.473 12.257-.058.116-.088.117c-.029.029-.058.058-.087.116-.058.03-.087.087-.146.117l-.174.087c-.059.029-.117.03-.175.058-.058 0-.117.03-.175.03h-.029c-.058 0-.145 0-.204-.03a.412.412 0 01-.174-.058.636.636 0 01-.146-.087c-.058-.03-.087-.059-.145-.117l-.088-.087-.087-.117-.058-.116L.117 9.339c-.059-.116-.088-.145-.088-.29A1.092 1.092 0 010 8.756c0-.175.03-.32.087-.437A.91.91 0 01.35 8l.175-.087A.403.403 0 01.7 7.855c.058-.03.116-.03.204-.03h1.425c.058 0 .146.03.204.03.058.029.116.058.204.087l.174.087c.059.03.117.088.146.117l.146.145c.029.059.087.117.116.175.03.058.058.116.087.175l3.057 7.744-.058-.059zM51.588 3.921v-.407l.03-.408.058-.407.058-.379c.029-.145.058-.262.087-.378.059-.117.117-.233.204-.32.087-.088.204-.146.32-.204.117-.059.262-.059.408-.059h.815a.93.93 0 01.408.088c.116.058.233.116.349.203.087.088.175.204.233.35a.93.93 0 01.087.407v18.255c0 .145-.029.32-.087.436-.058.146-.117.262-.233.35a1.46 1.46 0 01-.35.232 1.17 1.17 0 01-.436.088h-.728a.972.972 0 01-.437-.088c-.145-.058-.262-.116-.35-.232a1.047 1.047 0 01-.232-.35.973.973 0 01-.087-.436l-.03-.32c-.145.145-.32.29-.494.436a5.511 5.511 0 01-.874.553c-.465.233-.96.408-1.455.524a7.231 7.231 0 01-1.572.175 7.322 7.322 0 01-2.679-.524c-.844-.35-1.601-.903-2.242-1.543a7.23 7.23 0 01-1.484-2.33c-.35-.843-.524-1.804-.524-2.765 0-.96.174-1.921.524-2.766.349-.873.844-1.688 1.484-2.329a6.578 6.578 0 012.242-1.543c.815-.35 1.718-.524 2.679-.524a5.83 5.83 0 011.572.204c.495.116.99.32 1.455.553.291.146.582.35.845.553.145.117.29.262.436.379V3.92zm-8.151 10.976c0 .553.116 1.106.32 1.601.204.495.524.961.873 1.34a3.99 3.99 0 002.882 1.223 4.01 4.01 0 001.573-.32 4.18 4.18 0 001.339-.903c.378-.379.698-.845.902-1.369.204-.495.32-1.019.32-1.601a3.99 3.99 0 00-.32-1.572 4.18 4.18 0 00-.902-1.34 4.18 4.18 0 00-1.34-.902 4.1 4.1 0 00-1.572-.32 4.1 4.1 0 00-1.572.32 3.77 3.77 0 00-1.31.903c-.378.378-.67.844-.873 1.339a4.136 4.136 0 00-.32 1.601zm-15.95-5.849a.93.93 0 01.087-.407c.059-.117.117-.233.233-.35a.698.698 0 01.35-.204.93.93 0 01.407-.087h.815c.146 0 .292.03.408.058.117.059.233.117.32.204.088.087.175.204.233.32a.93.93 0 01.087.408v.087c.117-.116.233-.203.35-.29.204-.176.437-.321.67-.438a4.618 4.618 0 011.193-.465 4.432 4.432 0 011.223-.175c.786 0 1.514.146 2.154.437a5.17 5.17 0 011.776 1.252 5.86 5.86 0 011.165 1.921c.262.728.407 1.514.407 2.3v7.046c0 .145-.029.29-.087.436-.058.146-.116.262-.233.35-.087.116-.204.174-.35.232a.973.973 0 01-.436.088h-.932c-.174 0-.32-.03-.465-.088a1.046 1.046 0 01-.35-.232.793.793 0 01-.174-.35 1.763 1.763 0 01-.059-.436v-7.046c0-.466-.087-.873-.233-1.223a2.418 2.418 0 00-.64-.931 2.333 2.333 0 00-.611-.437 3.093 3.093 0 00-.728-.262 2.275 2.275 0 00-.757-.058c-.262 0-.495.058-.757.116a2.857 2.857 0 00-1.776 1.572c-.03.087-.058.175-.087.262l-.088.262c-.029.088-.029.175-.058.262v7.511a.93.93 0 01-.087.408 1.217 1.217 0 01-.233.35.699.699 0 01-.35.203.93.93 0 01-.407.088h-.932c-.728 0-1.077-.35-1.077-1.048V8.99l.029.058zm-7.83 10.015c.262 0 .495-.029.757-.058a5.31 5.31 0 00.728-.204 4.65 4.65 0 00.67-.32 2.77 2.77 0 00.581-.437l.088-.058c.087-.058.174-.116.29-.146.088-.029.205-.058.292-.087a.644.644 0 01.408.058c.116.059.233.117.32.233.175.204.32.437.466.64.116.146.203.321.32.466.116.175.146.32.146.495a.866.866 0 01-.146.437 1.608 1.608 0 01-.204.262l-.204.204-.029.03c-.349.261-.698.465-1.048.669-.35.204-.728.35-1.106.495-.378.116-.757.232-1.136.29a7.438 7.438 0 01-3.96-.466c-.872-.348-1.659-.902-2.328-1.571a6.926 6.926 0 01-1.543-2.33 7.211 7.211 0 01-.553-2.765c0-.96.204-1.892.553-2.737.35-.873.902-1.66 1.572-2.329a7.475 7.475 0 012.33-1.572 7.177 7.177 0 015.385-.058c.845.35 1.572.815 2.213 1.456a6.997 6.997 0 011.456 2.183 7.15 7.15 0 01.494 2.65v.116c0 .553 0 1.106-.67 1.455a1.011 1.011 0 01-.32.117c-.116.03-.203.058-.32.058-.087 0-.203.03-.29.03h-9.143c.117.32.262.64.466.931.233.35.524.67.845.932.378.29.786.553 1.222.698.437.146.903.233 1.398.233zm3.697-5.531c-.087-.32-.204-.64-.378-.903a3.781 3.781 0 00-.757-.902c-.35-.292-.757-.554-1.194-.7a4.355 4.355 0 00-1.368-.232c-.495 0-.96.087-1.398.233-.436.175-.873.407-1.222.699-.32.262-.612.582-.845.902-.174.291-.349.582-.466.903h7.628zM56.016 2.755c0-.087 0-.204.028-.291 0-.087.03-.204.059-.291l.087-.262c.03-.087.087-.146.146-.233l.174-.175c.059-.058.117-.087.175-.145.058-.03.146-.059.204-.088a.496.496 0 01.204-.029h.756c.088 0 .146 0 .204.03.059.028.146.028.204.058.058.029.117.087.175.116a.772.772 0 01.145.175c.059.058.088.145.117.204.029.087.058.145.087.232a.83.83 0 01.058.262c.03.088.03.175.03.292.058.524.087 1.019.116 1.572v10.277c.087 1.717.408 3.027.64 3.988v.03c.117.494.233.902.262 1.28.03.204.03.408.03.583 0 .174-.059.378-.117.524l-.029.087c-.03.058-.03.087-.058.146-.03.058-.03.087-.058.145-.03.058-.059.087-.088.146a.635.635 0 01-.145.116l-.117.058-.32.146c-.204.087-.437.204-.611.204-.175 0-.35-.058-.525-.146a1.77 1.77 0 01-.465-.466 4 4 0 01-.408-.698 10.729 10.729 0 01-.35-.932 27.7 27.7 0 01-.261-1.048 14.55 14.55 0 01-.204-1.194 16.876 16.876 0 01-.117-1.31 20.753 20.753 0 01-.058-1.397V2.755h.03zm10.219 13.248l2.97-7.25.087-.174.087-.175a.634.634 0 01.117-.145c.029-.058.087-.088.145-.117a.609.609 0 01.175-.116c.058-.03.116-.058.175-.087.058-.03.145-.03.203-.059.088 0 .146-.029.233-.029h1.077l.117.03c.03 0 .087.028.116.028l.088.03c.058.029.087.029.145.058a.407.407 0 01.117.087c.029.03.087.058.116.117.03.029.058.087.087.116.03.03.059.087.088.146.03.058.029.087.058.145 0 .058.03.087.03.146v.145c0 .059 0 .146-.03.204l-.03.087-.028.117-7.104 16.856-.087.175c-.03.058-.058.117-.117.146-.029.058-.087.087-.145.145-.058.03-.088.088-.146.117l-.174.087a.407.407 0 01-.175.058c-.058.03-.117.03-.175.03h-1.048c-.058 0-.087 0-.145-.03-.059 0-.088-.029-.146-.029-.058 0-.087-.029-.146-.058-.029-.03-.087-.029-.116-.058a.22.22 0 00-.116-.058l-.088-.088a.399.399 0 01-.087-.116.22.22 0 01-.058-.117c-.03-.029-.03-.087-.059-.116 0-.03-.029-.087-.029-.146v-.262c0-.029 0-.087.03-.145l.029-.146c0-.058.029-.087.058-.145l2.242-5.416-4.484-10.684c-.03-.058-.058-.117-.087-.175-.03-.145-.03-.233-.03-.378 0-.32.088-.553.262-.728.175-.175.437-.233.787-.233h1.193a.54.54 0 01.204.058l.175.088.174.087c.059.029.088.087.146.116a.513.513 0 01.117.146c.029.058.087.116.116.175l.087.174 2.97 7.279.029.087z" fill="#000"/></svg>
