<svg xmlns="http://www.w3.org/2000/svg" width="6.214" height="6.214" viewBox="0
0 725.76 725.81" shape-rendering="geometricPrecision"
text-rendering="geometricPrecision" image-rendering="optimizeQuality"
fill-rule="evenodd" clip-rule="evenodd"><path d="M709.25
565.91c-13.6-7.99-191.51-108.25-191.51-108.25-13.86-8.7-27.68-4.24-35.98
5.74-.09-.04-.18-.09-.22-.18l-65.56 65.56c-8.87 8.79-22.51 10.46-33.2
4.02-37.08-22.51-72.93-50.46-106.13-83.66-33.2-33.2-61.14-69.04-83.66-106.13-6.45-10.68-4.77-24.37
4.02-33.2l65.51-65.56a.847.847 0 01-.13-.22c9.76-8.17 14.57-21.9 5.74-36.02 0
0-100.26-177.91-108.25-191.46C148.49-2.74 97.1-13.51 50.71 32.84-52.72 136.36
7.14 363.76 184.56 541.18c177.33 177.38 404.78 237.37 508.39 133.9 46.31-46.4
35.58-97.78 16.29-109.17z" fill-rule="nonzero"/></svg>
