<svg xmlns="http://www.w3.org/2000/svg" width="5.04mm" height="15.477"
viewBox="0 0 667.34 542.21" shape-rendering="geometricPrecision"
text-rendering="geometricPrecision" image-rendering="optimizeQuality"
fill-rule="evenodd" clip-rule="evenodd"><path d="M667.34 64.19c-24.81
10.88-51.26 18.1-78.82 21.61 28.36-16.94 50-43.55 60.18-75.62-26.44 15.76-55.64
26.89-86.75 33.12C536.85 16.57 501.06 0 462.02 0c-75.75 0-136.73 61.48-136.73
136.84 0 10.84.91 21.28 3.16 31.2-113.74-5.55-214.38-60.06-281.99-143.09-11.8
20.47-18.72 43.92-18.72 69.14 0 47.39 24.4 89.39 60.76
113.7-21.98-.41-43.54-6.79-61.81-16.84v1.5c0 66.48 47.43 121.71 109.61
134.43-11.14 3.05-23.28 4.5-35.87 4.5-8.75 0-17.6-.5-25.9-2.34 17.73 54.18 68.03
94.01 127.84 95.31-46.55 36.41-105.65 58.35-169.63 58.35-11.23
0-21.98-.5-32.74-1.88 60.6 39.09 132.42 61.4 209.88 61.4 251.75 0 389.39-208.54
389.39-389.31 0-6.05-.21-11.89-.5-17.69 27.16-19.27 49.97-43.34 68.57-71.02z"
fill="#03a9f4" fill-rule="nonzero"/></svg>
