<svg xmlns="http://www.w3.org/2000/svg" width="15.247" height="17.788" viewBox="0 0 389.63 454.57" shape-rendering="geometricPrecision" text-rendering="geometricPrecision" image-rendering="optimizeQuality" fill-rule="evenodd" clip-rule="evenodd">
  <defs>
    <style>
      .fil0{fill:#006e72;fill-rule:nonzero}
    </style>
  </defs>
  <g id="Layer_x0020_1">
    <g id="_2212603147568">
      <path class="fil0" d="M389.63 422.11c0 17.93-14.55 32.46-32.47 32.46-17.94 0-32.47-14.54-32.47-32.46v-43.3c0-14.98-6.04-28.55-15.78-38.33-9.84-9.72-23.39-15.79-38.33-15.79H119.06c-14.93 0-28.48 6.08-38.27 15.86-9.76 9.76-15.84 23.32-15.84 38.25v43.29c0 17.94-14.54 32.47-32.47 32.47S.01 440.02.01 422.09V378.8c0-32.87 13.35-62.65 34.87-84.17 21.54-21.53 51.32-34.87 84.18-34.87h151.52c32.87 0 62.65 13.34 84.18 34.87v.14c21.52 21.54 34.87 51.29 34.87 84.05v43.3zM248.93 119.06c0-14.93-6.08-28.48-15.86-38.27-9.77-9.77-23.33-15.85-38.26-15.85-14.98 0-28.55 6.04-38.33 15.78-9.75 9.76-15.78 23.34-15.78 38.33 0 14.98 6.04 28.55 15.78 38.33 9.77 9.75 23.34 15.78 38.33 15.78 14.98 0 28.55-6.04 38.33-15.78 9.72-9.84 15.79-23.39 15.79-38.33zM279 34.88c21.54 21.54 34.88 51.33 34.88 84.18 0 32.86-13.34 62.65-34.88 84.18h-.14c-21.54 21.52-51.29 34.86-84.05 34.86s-62.51-13.34-84.05-34.86l-.14-.14c-21.52-21.54-34.86-51.29-34.86-84.05 0-32.78 13.34-62.52 34.86-84.06l.14-.14C132.3 13.32 162.05-.02 194.81-.02c32.86 0 62.65 13.34 84.18 34.88z"/>
    </g>
  </g>
</svg>
