<svg height="12" viewBox="0 0 551.13 551.13" width="12"
xmlns="http://www.w3.org/2000/svg"><path fill="#00E7B4" d="M275.565 275.565c-75.972
0-137.783-61.81-137.783-137.783S199.593 0 275.565 0s137.783 61.81 137.783
137.783-61.811 137.782-137.783 137.782zm0-241.119c-56.983 0-103.337
46.353-103.337 103.337S218.581 241.12 275.565 241.12s103.337-46.354
103.337-103.337S332.548 34.446 275.565 34.446zM499.461 551.13H51.668c-9.52
0-17.223-7.703-17.223-17.223V415.349c0-17.795 9.099-34.513 23.732-43.663
129.339-80.682 305.554-80.665 434.759-.017 14.649 9.166 23.749 25.885 23.749
43.679v118.558c0 9.521-7.703 17.224-17.224
17.224zm-430.57-34.445h413.348V415.349c0-6.004-2.893-11.555-7.552-14.464-118.256-73.819-279.905-73.87-398.26.017-4.642
2.893-7.535 8.443-7.535 14.448z"/></svg>
