<svg xmlns="http://www.w3.org/2000/svg" width="46.074" height="16.439" viewBox="0 0 2618.1 934.16" shape-rendering="geometricPrecision" text-rendering="geometricPrecision" image-rendering="optimizeQuality" fill-rule="evenodd" clip-rule="evenodd"><path d="M657.69 167.24L495.22 35.44c-9.71-7.88-9.64-17.57.15-25.36 9.81-7.82 26.5-11.47 43.71-9.56l55.13 6.08c11.47 1.27 20.51 4.55 27 9.79l118.49 96.13c6.46 5.24 8.55 11 6.23 17.16l-11.15 29.6c-3.5 9.24-16.28 16.04-33.53 17.83-17.22 1.78-33.85-2-43.56-9.86zM232.02 552.02l109.42-277.25c.99-2.3 2.06-4.51 3.22-6.55a69.64 69.64 0 013.89-6.08 56.63 56.63 0 014.55-5.3c1.59-1.61 3.29-3.16 5.11-4.55 2.19-1.63 4.42-3.03 6.74-4.21 2.3-1.18 4.7-2.19 7.13-2.94 2.38-.77 4.92-1.42 7.54-1.8 2.6-.41 5.33-.62 8.12-.62h35.93l4.06.28 3.93.58 3.99.94 3.84 1.35c1.72.67 3.44 1.55 5.07 2.47 1.61.94 3.22 2.02 4.7 3.2 1.48 1.16 2.92 2.45 4.21 3.8 1.35 1.4 2.62 2.94 3.69 4.49 1.14 1.65 2.13 3.33 3.01 5.07.82 1.72 1.57 3.52 2.17 5.33 1.2 3.84 1.83 7.71 1.83 11.64l-.26 4.21-.71 4.08-1.01 3.76-1.48 3.93-196.62 440.49-2.28 3.97-2.81 3.95a38.868 38.868 0 01-3.44 3.74 40.013 40.013 0 01-5.05 3.97c-1.83 1.14-3.76 2.17-5.8 2.96-1.89.77-3.97 1.42-6.19 1.85-1.93.37-4.02.6-6.14.62l-1.03.04a36.6 36.6 0 01-6.96-.77c-2.23-.45-4.32-1.12-6.25-1.95-2-.88-3.82-1.89-5.41-2.99a42.998 42.998 0 01-4.88-3.91l-3.29-3.63-2.86-3.97-2.23-3.89L4.76 300.22c-2.13-3.89-2.71-5.61-3.67-9.99-.56-3.82-.99-6.89-1.12-10.78 0-5.82 1.14-11.13 3.35-15.83 2.23-4.68 5.56-8.72 9.92-12.01 1.83-1.4 3.82-2.6 5.91-3.61 2.08-.97 4.3-1.8 6.64-2.49 2.28-.6 4.68-1.07 7.11-1.4 2.38-.32 4.88-.47 7.41-.47H76.8c2.34 0 4.77.19 7.17.54 2.47.34 4.88.88 7.15 1.55 2.43.73 4.7 1.61 6.85 2.62a48.7 48.7 0 016.31 3.61c1.95 1.31 3.89 2.79 5.67 4.42 1.8 1.63 3.48 3.39 4.92 5.2 1.52 1.89 2.99 3.91 4.27 6.08 1.29 2.06 2.43 4.27 3.41 6.57l109.42 277.78zm1622.17-445.28c0-4.38.15-9.15.43-14.15l1.1-14.54 1.57-14.22 1.83-13.62c.56-5.07 1.78-9.77 3.65-13.92 1.93-4.25 4.53-7.99 7.82-11.1 3.41-3.24 7.43-5.71 11.98-7.37 4.38-1.59 9.26-2.43 14.56-2.43h29.4c5.22 0 10.14.92 14.65 2.64 4.66 1.78 8.78 4.4 12.24 7.75 3.48 3.39 6.27 7.47 8.12 12.11 1.78 4.42 2.75 9.36 2.75 14.6v655.65c0 5.67-.94 11.02-2.77 15.79a36.613 36.613 0 01-8.2 12.93 36.138 36.138 0 01-12.89 8.42c-4.75 1.85-10.07 2.83-15.76 2.83h-26.59c-5.8 0-11.13-.9-15.87-2.62-4.88-1.78-9.17-4.51-12.76-8.08-3.46-3.44-6.19-7.54-8.08-12.33-1.87-4.64-2.99-9.86-3.33-15.64l-.82-11.53a200.63 200.63 0 01-17.76 15.55c-9.92 7.65-20.57 14.37-31.64 20.1-16.39 8.46-33.98 14.88-52.06 19.2-18.49 4.42-37.39 6.66-55.95 6.66-34.53 0-66.88-6.85-96.07-19.18-30.56-12.93-57.67-31.89-80.19-55.37-22.89-23.86-41.13-52.4-53.5-83.93-12.09-30.84-18.68-64.6-18.68-99.72 0-34.96 6.61-68.68 18.77-99.52 12.41-31.53 30.71-60.16 53.67-84.1 22.57-23.54 49.7-42.63 80.26-55.6 29.1-12.39 61.38-19.29 95.74-19.29 18.62 0 37.56 2.34 55.99 6.87 18.17 4.49 35.87 11.15 52.3 19.87 10.57 5.63 20.7 12.2 30.22 19.57 5.5 4.3 10.8 8.91 15.87 13.81V106.72zM1561.46 501.1c0 20.25 3.95 39.69 11.13 57.34 7.41 18.28 18.3 34.79 31.83 48.54 13.38 13.62 29.42 24.66 47.34 32.13 17.14 7.19 36.06 11.19 56.08 11.19 20.12 0 39.22-4.06 56.57-11.32 18.11-7.58 34.38-18.73 48.04-32.54a151.602 151.602 0 0032.37-48.88c7.26-17.68 11.28-37.11 11.28-57.41 0-20.25-3.97-39.47-11.17-56.91-7.45-18.15-18.45-34.45-32.09-48.09-13.62-13.64-29.94-24.63-48.09-32.09-17.42-7.19-36.66-11.15-56.91-11.15-19.95 0-38.85 3.99-55.97 11.17-17.93 7.52-33.98 18.56-47.38 32.17a149.652 149.652 0 00-31.87 48.58c-7.19 17.65-11.15 37.03-11.15 57.26zM988.88 291.18c0-5.28.94-10.2 2.75-14.63 1.85-4.62 4.62-8.7 8.1-12.09 3.48-3.37 7.65-6.01 12.22-7.75 4.53-1.72 9.49-2.64 14.67-2.64h29.4c5.3 0 10.2.84 14.56 2.43 4.55 1.65 8.57 4.15 11.98 7.37 3.33 3.18 5.97 6.98 7.9 11.3 1.89 4.23 3.09 9.02 3.63 14.26l.34 3.16c3.97-3.76 8.16-7.32 12.48-10.72a184.17 184.17 0 0124.44-16.06 191.82 191.82 0 0142.46-17.1c14.5-3.89 29.23-5.97 43.53-5.97 28.37 0 54.49 5.54 77.81 15.53 24.61 10.52 46.09 26.01 63.83 45.12 18.21 19.63 32.49 43.15 42.2 69.09 9.6 25.75 14.75 53.91 14.75 83.03v252.65c0 5.46-.94 10.72-2.73 15.51-1.76 4.85-4.47 9.26-7.92 12.91a36.2 36.2 0 01-12.65 8.63c-4.6 1.87-9.81 2.92-15.4 2.92h-33.63c-6.42 0-11.98-.92-16.75-2.75-4.96-1.89-9.04-4.79-12.39-8.66-3.18-3.65-5.37-7.9-6.72-12.71-1.33-4.6-1.93-9.73-1.93-15.38v-252.5c0-16.49-2.9-31.1-8.05-43.71-5.52-13.53-13.64-24.91-23.43-33.93-6.59-6.08-14-11.17-21.97-15.21-8.14-4.15-16.9-7.22-25.94-9.13-9.04-1.93-18.38-2.73-27.6-2.34-9.15.37-18.28 1.89-27.1 4.57-13.62 4.17-26.63 11.17-37.95 21.11-10.55 9.26-19.67 21.11-26.5 35.61a84.86 84.86 0 00-3.59 8.98 86.493 86.493 0 00-2.62 9.43c-.71 3.26-1.25 6.55-1.59 9.77-.32 3.16-.49 6.55-.49 10.12v259.59c0 5.39-.92 10.35-2.66 14.78-1.87 4.66-4.62 8.72-8.08 12.07-3.44 3.35-7.54 5.95-12.16 7.67-4.55 1.72-9.56 2.62-14.86 2.62h-33.63c-25.9 0-38.7-12.39-38.7-37.13V291.19zM708.12 650.3c9.15 0 18.21-.84 27.02-2.43 8.91-1.61 17.76-4.02 26.2-7.17 8.35-3.09 16.45-6.96 24.08-11.51 7.45-4.42 14.45-9.54 20.81-15.23l2.81-2.3c2.9-2.13 6.38-4.08 10.07-5.52 3.44-1.37 7.17-2.38 10.87-2.79 5-.56 10.12-.15 14.84 1.57 4.36 1.61 8.42 4.32 11.88 8.35l.15.19c5.78 7.52 11.1 15.31 16.41 23.13 3.78 5.61 7.65 11.21 11.75 16.86l.19.32c3.72 5.95 5.11 11.77 4.88 17.33-.26 5.48-2.13 10.63-4.9 15.36-2.04 3.46-4.6 6.57-7.26 9.32-2.71 2.83-5.28 5.18-7.6 7.19l-1.05.84c-12.22 9.06-24.87 17.18-37.93 24.14-12.78 6.85-25.99 12.71-39.6 17.42a257.278 257.278 0 01-40.78 10.46 257.139 257.139 0 01-42.82 3.61c-34.94 0-68.36-6.96-98.79-19.54-31.57-13.04-59.99-32.19-83.7-55.95-23.69-23.75-42.85-52.21-55.86-83.8-12.56-30.5-19.5-63.89-19.5-98.9 0-34.88 6.98-68.25 19.59-98.75 13.06-31.64 32.28-60.14 56.03-83.97 23.77-23.82 52.19-43.06 83.72-56.16 30.37-12.63 63.66-19.63 98.51-19.63 34.04 0 66.21 6.38 95.31 18.02 30.02 12.05 56.83 29.75 79.14 51.95 22.25 22.14 40.08 48.8 52.15 78.73 11.68 28.91 18.08 60.91 18.08 94.89l-.04 4.08c.17 19.52.32 39.84-23.62 52.23-3.59 1.87-7.39 3.29-11.25 4.32-3.72.99-7.65 1.72-11.58 2.15-3.48.39-6.98.64-10.37.77l-9.49.15H567.26c4.15 11.86 9.73 23.02 16.49 33.25 8.25 12.48 18.43 23.67 29.96 33.14a149.43 149.43 0 0044.39 25.19c15.68 5.63 32.58 8.7 50.04 8.7zm133.05-199.07a130.388 130.388 0 00-13.81-32.73c-7.35-12.37-16.67-23.41-27.45-32.71-12.44-10.76-26.91-19.33-42.67-25.13-15.33-5.67-31.96-8.74-49.12-8.74-17.31 0-34.13 3.05-49.74 8.68-16.15 5.78-31.21 14.35-44.41 25.15-11.47 9.36-21.61 20.45-29.85 32.84a146.277 146.277 0 00-16.37 32.64h273.42zM2026.76 65.78c0-3.67.24-7.26.67-10.7.49-3.57 1.18-7 2.1-10.27.94-3.35 2.1-6.51 3.48-9.36 1.4-2.94 3.01-5.63 4.79-8.12 1.78-2.45 3.72-4.62 5.8-6.44 2.04-1.85 4.25-3.46 6.59-4.7 2.32-1.25 4.77-2.23 7.26-2.86 2.49-.64 5.05-.99 7.56-.99h27.55c2.62 0 5.15.3 7.56.88 2.51.56 4.9 1.46 7.11 2.6 2.32 1.18 4.51 2.68 6.51 4.4 2.08 1.85 3.97 3.93 5.69 6.23 1.7 2.28 3.18 4.79 4.51 7.45 1.31 2.64 2.45 5.54 3.46 8.66.94 2.94 1.74 6.1 2.34 9.39.6 3.24 1.05 6.66 1.33 10.24 1.83 19.16 3.2 37.09 4.27 56.4l.26 10.05.11 9.26.11 348.7c3.18 61.88 14.8 108.67 23.28 142.84l.26 1.14c4.38 17.63 8.03 32.45 9.71 45.81.94 7.43 1.25 14.43.73 21.05-.49 6.72-1.87 13.12-4.27 19.22l-1.16 3.46c-.58 1.8-1.12 3.46-1.76 5.09-.67 1.72-1.44 3.35-2.41 4.96-1.03 1.68-2.19 3.26-3.63 4.72-1.42 1.48-3.09 2.86-5.15 4.23l-4.02 2.38-11.73 5.33c-7.19 3.29-15.83 7.24-22.04 7.39-6.42 0-12.65-1.98-18.66-5.76-6.04-3.76-11.81-9.39-17.25-16.62-5.15-6.87-10.07-15.36-14.63-25.21-4.51-9.75-8.7-20.98-12.48-33.4-3.44-11.43-6.66-24.16-9.54-38.06-2.75-13.44-5.18-27.94-7.19-43.28-1.95-14.82-3.52-30.58-4.68-47.01a913.15 913.15 0 01-2.08-49.68l-.37-429.43zm366.89 475.35l106.8-260.02c.88-2.26 1.89-4.47 2.96-6.49 1.05-2 2.21-3.95 3.48-5.76 1.35-1.98 2.88-3.82 4.42-5.5 1.52-1.63 3.16-3.18 4.94-4.57 1.95-1.57 4.06-2.96 6.23-4.17 2.1-1.18 4.38-2.19 6.74-3.01 2.41-.82 4.9-1.44 7.56-1.87 2.6-.41 5.28-.6 7.99-.6h34.88l3.91.19 3.93.6c1.37.28 2.68.62 3.93 1.01l3.63 1.35c1.65.71 3.29 1.55 4.81 2.47 1.61.99 3.09 2.06 4.51 3.22 1.37 1.14 2.71 2.41 3.97 3.82 1.22 1.35 2.36 2.81 3.39 4.38 1.01 1.52 1.93 3.14 2.73 4.83.79 1.7 1.48 3.41 2 5.13.54 1.8.94 3.63 1.22 5.43.24 1.8.41 3.61.41 5.41 0 2.43-.28 5.03-.86 7.65l-.92 3.63-1.37 3.74-255.17 605.13c-.92 2.13-1.98 4.15-3.14 6.04-1.2 1.91-2.56 3.76-3.99 5.39a42.728 42.728 0 01-4.81 4.7 49.443 49.443 0 01-5.56 3.97 44.223 44.223 0 01-5.86 2.99 51.8 51.8 0 01-6.27 2.19c-2.19.56-4.4.99-6.66 1.29-2.21.28-4.42.43-6.55.43h-25.92c-1.83 0-3.65-.06-5.48-.21-1.74-.13-3.52-.34-5.26-.62-1.7-.28-3.35-.64-4.92-1.07-1.65-.47-3.24-.99-4.7-1.59-1.5-.6-2.96-1.29-4.38-2.08-1.4-.77-2.75-1.7-3.99-2.62a32.523 32.523 0 01-3.57-3.22c-1.14-1.14-2.13-2.41-3.05-3.67-.97-1.42-1.8-2.88-2.51-4.32-.71-1.48-1.33-3.01-1.78-4.55a34.91 34.91 0 01-1.07-4.81c-.21-1.68-.34-3.37-.34-5.07 0-1.42.11-2.96.28-4.6.19-1.52.45-3.11.86-4.77l1.27-4.77c.49-1.57 1.12-3.26 1.83-5.03l80.02-194.45-160.8-383.53c-1.22-2.58-1.76-3.67-2.62-6.29-1.01-4.75-1.2-8.46-1.55-13.23 0-11.38 3.26-20.02 9.84-25.86 6.44-5.76 15.94-8.63 28.44-8.63h35.39c2.41 0 4.81.17 7.13.52 2.38.34 4.68.9 6.92 1.57 2.32.77 4.57 1.68 6.64 2.73 2.1 1.03 4.12 2.23 6.06 3.63 1.89 1.35 3.69 2.83 5.37 4.45 1.63 1.59 3.2 3.35 4.62 5.18 1.42 1.85 2.75 3.84 3.93 5.88 1.16 2.08 2.23 4.27 3.16 6.55l106.93 261.48z" fill-rule="nonzero"/></svg>
